<svg id="visual" viewBox="0 0 960 540" width="960" height="540" xmlns="http://www.w3.org/2000/svg" xmlns:xlink="http://www.w3.org/1999/xlink" version="1.1"><path d="M0 472L17.8 474.2C35.7 476.3 71.3 480.7 106.8 469.3C142.3 458 177.7 431 213.2 415C248.7 399 284.3 394 320 395.5C355.7 397 391.3 405 426.8 418.7C462.3 432.3 497.7 451.7 533.2 465.3C568.7 479 604.3 487 640 480.2C675.7 473.3 711.3 451.7 746.8 438.3C782.3 425 817.7 420 853.2 424.2C888.7 428.3 924.3 441.7 942.2 448.3L960 455L960 541L942.2 541C924.3 541 888.7 541 853.2 541C817.7 541 782.3 541 746.8 541C711.3 541 675.7 541 640 541C604.3 541 568.7 541 533.2 541C497.7 541 462.3 541 426.8 541C391.3 541 355.7 541 320 541C284.3 541 248.7 541 213.2 541C177.7 541 142.3 541 106.8 541C71.3 541 35.7 541 17.8 541L0 541Z" fill="#000" stroke-linecap="round" stroke-linejoin="miter"></path></svg>