<svg id="visual" viewBox="0 0 900 600" width="900" height="600" xmlns="http://www.w3.org/2000/svg" xmlns:xlink="http://www.w3.org/1999/xlink" version="1.1"><path d="M0 480L21.5 469C43 458 86 436 128.8 435C171.7 434 214.3 454 257.2 469.5C300 485 343 496 385.8 497.2C428.7 498.3 471.3 489.7 514.2 483.8C557 478 600 475 642.8 480C685.7 485 728.3 498 771.2 500.3C814 502.7 857 494.3 878.5 490.2L900 486L900 601L878.5 601C857 601 814 601 771.2 601C728.3 601 685.7 601 642.8 601C600 601 557 601 514.2 601C471.3 601 428.7 601 385.8 601C343 601 300 601 257.2 601C214.3 601 171.7 601 128.8 601C86 601 43 601 21.5 601L0 601Z" fill="#8eb1fe" stroke-linecap="round" stroke-linejoin="miter"></path></svg>